<svg version="1.1" id="Layer_1" xmlns="http://www.w3.org/2000/svg" xmlns:xlink="http://www.w3.org/1999/xlink" x="0px" y="0px"
	 width="100%" viewBox="0 0 496 496" enable-background="new 0 0 496 496" xml:space="preserve">
<path fill="#FFA07A" opacity="1.000000" stroke="none" 
	d="
M451.000000,497.000000 
	C389.979095,497.000000 328.958221,497.000000 267.141052,496.808533 
	C253.198059,493.479095 240.091980,494.515228 227.000000,497.000000 
	C209.312439,497.000000 191.624878,497.000000 173.092590,496.850891 
	C158.815613,494.602478 145.408127,495.844452 132.000000,497.000000 
	C121.312439,497.000000 110.624878,497.000000 99.087418,496.860748 
	C91.304626,495.890625 84.339035,495.370605 77.396149,494.630707 
	C60.503677,492.830353 44.335175,489.675385 32.133503,476.402618 
	C31.808958,476.049591 31.321497,475.772491 30.857908,475.632477 
	C26.329527,474.264618 23.647055,471.263794 22.295448,466.735107 
	C21.850145,465.243042 20.262869,464.131195 19.439859,462.705719 
	C15.887851,456.553528 9.849408,451.851410 7.900109,444.870880 
	C3.254726,428.235474 2.909966,411.047974 2.654978,393.941986 
	C2.217060,364.564087 7.130706,335.657043 11.293352,306.723022 
	C13.655561,290.303589 15.790174,273.802368 11.226827,257.709320 
	C6.308362,240.363861 4.087296,222.954361 4.412917,205.005325 
	C4.535186,198.265549 3.851584,191.373337 1.000000,185.000000 
	C1.000000,163.312439 1.000000,141.624878 1.068444,119.079239 
	C1.434746,116.770744 1.892607,115.332726 2.006045,113.868034 
	C3.336429,96.690369 9.592443,81.812408 21.336693,68.961029 
	C28.057083,61.607109 35.836029,55.205292 41.522739,46.904316 
	C46.534916,39.587971 51.973804,32.606377 59.793827,28.078016 
	C78.738937,17.107422 73.691673,15.532884 91.277061,27.723019 
	C93.142952,29.016453 94.916649,30.257174 97.159843,28.744518 
	C103.932915,24.177237 111.587692,21.479628 118.880341,18.010609 
	C130.464340,12.500267 142.275589,8.781260 154.811844,6.594916 
	C163.595123,5.063099 172.502533,3.938720 181.000000,1.000000 
	C193.020889,1.000000 205.041794,1.000000 217.894485,1.119851 
	C233.173767,5.295721 247.598846,5.307441 262.000000,1.000000 
	C269.020966,1.000000 276.041901,1.000000 283.905792,1.107599 
	C290.825806,2.115299 296.989105,2.637883 302.960175,4.002111 
	C312.419952,6.163416 322.043579,7.182630 331.626740,7.472017 
	C350.914948,8.054469 370.010681,8.546848 389.020813,13.228413 
	C404.653717,17.078276 419.695404,21.838772 433.879425,29.341011 
	C437.548370,31.281607 440.844635,34.072392 444.669617,35.542240 
	C452.864594,38.691368 459.482788,43.223492 465.655121,49.865452 
	C482.875427,68.396088 492.257935,90.416901 493.923004,114.889969 
	C495.771301,142.056564 495.091003,169.440674 488.499329,196.241882 
	C487.628235,199.783813 487.350800,203.433441 487.241364,207.122147 
	C486.864838,219.816574 487.778381,232.235870 491.008362,244.674133 
	C493.918152,255.879089 495.071808,267.540131 497.000000,279.000000 
	C497.000000,311.687561 497.000000,344.375122 496.833984,377.866699 
	C495.002563,385.292633 494.468903,392.052521 494.113556,398.844849 
	C493.819031,404.474701 494.362640,410.407776 492.729279,415.643158 
	C490.649261,422.310089 491.837158,429.014587 490.789612,435.679352 
	C489.089783,446.494232 490.059662,457.736053 485.136292,468.009430 
	C481.775879,475.021362 479.307098,482.744690 471.900787,486.828766 
	C465.114716,490.570831 458.754211,495.233002 451.000000,497.000000 
M269.025940,72.364685 
	C276.486023,78.346077 284.918610,82.708374 293.379059,87.032104 
	C298.998474,89.903923 303.847656,89.750603 308.467773,84.687469 
	C317.816864,74.441940 330.810577,70.527451 343.169189,65.614296 
	C349.546906,63.078846 355.297302,58.806408 362.570831,58.650566 
	C363.582611,58.628887 364.638275,57.626591 365.558044,56.926414 
	C367.998413,55.068588 370.752045,53.908562 373.706787,53.282745 
	C379.032684,52.154709 383.678650,49.592590 388.096924,46.582813 
	C397.969666,39.857410 408.596008,34.901852 420.336670,32.441887 
	C421.200623,32.260868 422.420929,32.138752 422.242340,30.420023 
	C421.480316,30.046839 420.618134,29.602854 419.738342,29.197069 
	C408.345795,23.942604 396.343475,20.876722 384.108093,18.152466 
	C370.702515,15.167660 357.293915,13.460506 343.604248,13.226008 
	C328.944458,12.974892 314.392853,11.619291 299.955963,8.821825 
	C284.313019,5.790651 268.469452,5.752000 252.744415,7.859552 
	C243.234909,9.134065 233.981140,9.323583 224.470505,7.840580 
	C215.973038,6.515568 207.431458,4.529751 198.692978,5.553224 
	C184.318130,7.236840 170.076263,9.645603 155.854767,12.400221 
	C137.219025,16.009853 119.700645,22.312511 103.066177,31.316748 
	C99.625725,33.179066 98.872467,34.936127 101.996567,38.058205 
	C109.325256,45.382130 115.423149,53.701031 120.712769,62.616734 
	C121.460709,63.877396 122.353615,65.384941 123.570160,65.981850 
	C133.011734,70.614471 139.692871,78.765297 147.945084,84.900070 
	C149.768494,86.255608 151.088654,86.293655 152.794525,84.951866 
	C164.423660,75.804710 176.203934,66.873970 188.215744,58.216320 
	C194.055542,54.007217 200.474167,51.331223 206.870392,49.095966 
	C210.904648,47.686146 215.899170,45.840221 220.410004,46.950905 
	C225.848923,48.290112 231.431366,50.114021 236.171509,53.006607 
	C246.822067,59.505928 257.710999,65.579895 269.025940,72.364685 
M186.938477,478.997131 
	C184.272476,478.049194 182.064392,479.375732 179.829803,480.467163 
	C174.654144,482.995117 169.308411,485.040802 163.233597,487.020905 
	C163.991898,483.059723 166.487274,481.721436 168.961105,480.479218 
	C172.114960,478.895538 174.832718,476.850647 177.415466,474.407104 
	C181.186310,470.839478 179.956238,466.733032 178.313721,463.376770 
	C176.578217,459.830505 172.991745,462.664917 170.232391,462.898285 
	C167.911713,463.094513 166.000229,465.460205 162.998199,464.415192 
	C165.427444,459.517303 170.219315,458.423340 174.181168,456.260284 
	C176.343567,455.079681 177.633194,453.874573 176.444824,451.151276 
	C175.316879,448.566467 173.779541,448.094360 171.301437,449.165619 
	C170.031769,449.714508 168.617966,450.802612 166.880798,449.148407 
	C166.872391,446.203735 169.269104,444.852020 171.386948,443.361450 
	C173.289597,442.022339 175.344467,440.909760 176.651749,438.851227 
	C177.615738,437.333282 177.320023,436.031616 176.315338,434.723755 
	C175.569382,433.752747 174.545441,432.646881 173.417587,433.451874 
	C168.383316,437.044891 161.723190,435.331421 156.613190,439.047943 
	C151.091751,443.063690 144.028458,443.324158 137.876190,442.551605 
	C125.622612,441.012817 113.404312,440.431946 101.100784,440.287506 
	C92.556137,440.187195 88.246361,435.234131 88.306313,426.185059 
	C94.528854,426.732635 94.294731,426.714996 94.798462,420.032440 
	C95.233818,414.256989 97.593620,409.242523 103.034195,404.705353 
	C105.041176,412.231018 112.539742,415.032013 113.902786,422.698181 
	C117.844139,419.926544 119.719299,421.591980 120.985840,424.576385 
	C121.827377,426.559387 122.646774,428.563843 123.279396,430.619232 
	C123.702919,431.995270 124.270721,433.410065 125.724266,433.416321 
	C131.507782,433.441284 136.987183,435.504669 142.965652,434.977631 
	C151.742752,434.203857 159.026505,429.690948 166.998383,426.966522 
	C172.113190,425.218506 174.167862,421.205414 173.827728,415.551300 
	C173.218201,405.419434 172.186447,395.292206 172.567657,385.113342 
	C172.595520,384.369904 172.863235,383.396545 171.793808,382.993805 
	C163.462952,390.574158 158.424301,392.249573 147.237442,389.496460 
	C132.167618,385.787659 118.456329,378.532959 104.670189,371.675140 
	C99.251801,368.979828 94.157173,367.810089 88.499458,370.051849 
	C86.287369,370.928345 84.008163,371.138824 81.666489,371.298523 
	C70.264549,372.076233 60.142769,368.225281 50.465492,362.773193 
	C48.141384,361.463837 45.974777,359.828278 43.118130,360.002014 
	C40.006771,360.191254 37.250164,359.182800 34.551693,357.738464 
	C27.748505,354.097137 20.121382,354.963165 12.746231,353.187286 
	C10.471725,361.999298 11.132154,370.393250 10.715182,378.639648 
	C9.882744,395.102692 10.106943,411.529480 13.240398,427.877777 
	C15.326340,438.760864 21.259308,445.827820 31.647242,450.399689 
	C30.347099,446.878571 27.824512,444.908264 25.825867,442.582886 
	C23.267773,439.606506 21.247000,436.497375 21.574743,432.288879 
	C21.916878,427.895569 22.671965,427.517944 26.771021,429.430969 
	C29.574413,430.739349 32.230045,433.126984 36.355938,431.669739 
	C33.386673,425.215973 29.434484,419.618530 27.477524,413.048523 
	C25.406469,406.095459 24.569170,399.481110 29.282175,392.854706 
	C39.749451,402.006287 47.874187,412.288147 50.384892,427.158051 
	C53.844494,422.228455 52.313190,418.752655 50.953045,415.384857 
	C48.186413,408.534515 45.945988,401.599243 46.648926,394.073792 
	C47.055603,389.720032 48.480232,385.882324 53.063622,382.444489 
	C56.946079,392.488800 64.004959,399.919220 66.861732,409.655396 
	C68.063377,413.750702 67.009483,417.608612 65.425537,421.306305 
	C62.468460,428.209534 58.570892,434.632446 54.411011,440.847260 
	C52.899235,443.105804 52.313080,444.727203 54.154682,446.962616 
	C59.654491,433.914032 67.891418,422.963959 77.148994,412.584229 
	C82.040298,426.961456 75.827919,438.403717 68.340927,449.637054 
	C75.066193,444.769257 80.123863,438.670166 84.470596,431.206482 
	C91.644371,444.382202 84.961044,454.388916 79.299141,464.505432 
	C83.692635,466.830261 87.947075,464.092072 92.635498,464.782623 
	C92.097351,474.208649 85.445663,479.899780 80.359116,486.217896 
	C81.812126,487.841156 83.259438,488.375092 84.724007,488.503998 
	C93.336220,489.262207 101.947289,490.254913 110.578629,490.519257 
	C121.896584,490.865906 133.177521,489.540436 144.475510,488.940125 
	C153.938110,488.437347 163.413727,488.538757 172.916183,489.214569 
	C185.968811,490.142761 199.003937,493.225311 212.156906,490.569275 
	C216.692108,489.653473 221.607498,490.551605 227.067917,487.869904 
	C221.504211,484.442688 217.246567,481.374084 211.375031,481.225708 
	C203.459076,481.025635 195.372025,482.315521 186.938477,478.997131 
M442.192963,44.485935 
	C438.625854,42.339657 435.038544,40.226040 431.500702,38.032551 
	C429.871674,37.022533 428.327148,36.337982 426.375763,37.258274 
	C416.070953,42.118069 405.793701,47.041878 395.402222,51.710499 
	C388.031769,55.021858 380.891327,58.838081 373.742462,62.521912 
	C364.956116,67.049568 353.791321,65.235283 346.485382,73.248505 
	C345.991516,73.790176 344.972687,74.008385 344.169128,74.088966 
	C334.609161,75.047684 327.011963,80.407356 319.394012,85.457214 
	C310.204010,91.549171 300.650269,97.023430 292.764374,105.131310 
	C284.548004,113.578896 273.418640,118.535126 264.473969,126.281799 
	C262.125275,128.315948 259.050140,129.501312 256.349121,131.143173 
	C255.137802,131.879532 253.405518,132.083344 253.161423,133.840515 
	C253.288971,134.904709 253.999146,135.342453 254.754700,135.710953 
	C257.777679,137.185394 261.450256,136.385925 264.311615,138.318298 
	C268.217072,140.955795 271.153748,140.196152 274.884644,137.200211 
	C283.471710,130.304733 295.927185,133.147263 301.048309,142.659103 
	C301.911621,144.262619 303.141083,145.109085 304.602722,145.957581 
	C309.518555,148.811249 309.860016,150.953461 306.211700,155.063400 
	C309.780304,158.988022 315.755096,157.974182 319.494659,161.490952 
	C324.400665,166.104660 330.933319,168.300446 335.953674,172.745148 
	C337.981293,174.540298 340.203674,173.977386 342.486572,172.932358 
	C351.632233,168.745819 359.914520,162.723465 367.234955,156.373810 
	C377.858887,147.158752 387.606964,136.814087 398.739441,128.112228 
	C403.510864,124.382584 407.036621,119.447868 411.788361,115.849937 
	C421.059540,108.829926 430.860168,102.509750 438.223694,93.215202 
	C441.224426,89.427559 445.223389,86.637871 449.468994,84.198372 
	C455.400574,80.790138 460.864136,76.722191 465.905762,72.039902 
	C469.292236,68.894814 468.941437,65.860344 466.145599,62.992798 
	C459.221558,55.891071 453.033173,47.775909 442.192963,44.485935 
M359.451843,395.088226 
	C360.366852,396.841797 360.931549,400.230347 362.260345,400.057037 
	C367.239594,399.407562 366.510895,403.588501 367.977417,405.846680 
	C368.959412,407.358795 369.346710,409.999969 370.609497,410.458771 
	C376.198944,412.489685 374.052002,415.777008 372.671112,419.232605 
	C372.027588,420.842957 370.226105,422.065155 370.969269,424.710327 
	C377.704163,422.875366 381.804565,430.905304 388.607635,429.416840 
	C394.731262,428.077087 400.994415,429.078949 407.779480,428.278107 
	C392.434967,422.057770 385.005066,410.352264 390.484924,401.808929 
	C393.471771,402.417511 395.367432,405.599854 398.875519,405.685303 
	C393.681000,391.572571 398.549316,376.272675 408.826416,374.290924 
	C410.003632,382.331299 413.752502,389.540009 415.912598,397.811218 
	C419.351135,394.125397 421.016296,389.549744 425.966949,388.086609 
	C429.665802,395.847595 431.683655,403.621033 429.474213,412.000763 
	C434.879974,412.426270 435.206573,405.749481 439.748627,405.508118 
	C443.816925,417.415161 444.187103,424.421448 434.533234,434.166321 
	C435.023224,435.779602 436.434906,437.048340 437.778168,436.754791 
	C444.787628,435.222931 447.424072,428.325348 452.043121,424.006927 
	C454.076996,425.339081 454.128326,427.016846 454.394135,428.650635 
	C454.873352,431.596649 455.311523,434.562683 456.037415,437.452362 
	C457.301910,442.486115 458.054871,442.758514 462.295319,440.038116 
	C463.839600,439.047485 465.262512,437.813416 467.485809,439.056854 
	C467.811401,441.389954 466.888458,444.635437 470.331787,445.508606 
	C472.634338,446.092438 482.555237,438.162384 482.527161,435.661438 
	C482.451965,428.963745 484.315094,422.470734 484.544891,415.866882 
	C484.936035,404.626251 485.892639,393.464508 487.418488,382.335693 
	C488.860901,371.815460 491.581757,361.493042 491.867676,350.784973 
	C492.056152,343.725739 491.039276,342.516266 483.994202,343.769806 
	C482.051819,344.115448 480.143433,344.839844 478.319000,345.622437 
	C474.189178,347.393890 470.143066,349.359497 466.024017,351.156982 
	C456.774780,355.193268 447.690002,355.870819 439.027191,349.599854 
	C436.484772,347.759399 434.035461,347.682648 431.127350,349.107574 
	C426.590912,351.330292 421.897644,351.720184 417.310516,348.846405 
	C415.024567,347.414337 412.693390,347.183167 410.373566,349.082672 
	C409.685455,349.646088 408.418549,350.073303 407.622955,349.844940 
	C401.039429,347.955200 395.518005,350.929321 390.023193,353.660889 
	C385.149658,356.083618 380.205292,357.753815 374.690125,357.249817 
	C371.268494,356.937164 368.220398,358.071411 365.066711,359.325043 
	C355.185699,363.253082 345.408905,367.732147 334.745789,369.040985 
	C330.464691,369.566467 329.164459,371.191437 329.069183,375.315613 
	C328.815247,386.309418 331.175476,397.175842 330.433624,408.177368 
	C330.313171,409.963470 330.958801,411.583801 332.767700,412.202972 
	C335.863953,413.262817 338.662628,415.211182 340.893707,415.481995 
	C348.712677,407.826599 346.066284,395.291138 355.471436,389.087860 
	C357.740112,390.687592 358.216675,392.718109 359.451843,395.088226 
M344.787140,489.799377 
	C343.589539,486.638611 341.056671,486.319702 338.222473,486.786957 
	C334.201782,487.449768 330.192871,488.183899 325.813477,488.951630 
	C326.332825,485.208649 329.203949,483.875885 330.739471,481.628265 
	C332.084991,479.658722 334.925903,478.057007 332.811279,475.242004 
	C330.786163,472.546112 327.957794,472.894470 325.107056,474.098328 
	C322.787262,475.077972 320.633911,476.810913 317.726105,476.439880 
	C317.767151,472.956848 320.394684,471.573334 321.880798,469.476898 
	C323.121674,467.726440 326.232147,466.647522 324.547577,463.761108 
	C322.969940,461.057892 321.247345,458.270905 317.367828,458.426178 
	C315.041534,458.519287 312.691040,458.508331 310.376617,458.284149 
	C306.636383,457.921936 305.378479,455.486176 307.702820,452.493317 
	C310.095184,449.412811 309.960968,446.142609 310.003174,442.624908 
	C306.031097,442.649261 302.961273,445.324066 298.495819,445.152710 
	C300.715973,438.019989 309.110168,436.600220 310.946075,429.962219 
	C310.198425,428.070709 307.449249,428.265656 306.835083,426.635620 
	C303.876587,418.783417 297.516785,415.071625 290.622772,411.123444 
	C287.030731,409.066284 283.708588,406.891388 279.664703,405.912567 
	C278.190125,405.555634 276.705688,405.009247 275.472992,406.345856 
	C274.048859,407.890045 274.968658,409.568176 275.566071,411.033691 
	C276.530823,413.400269 278.575104,414.366638 281.058838,414.769135 
	C284.994110,415.406830 288.936035,416.093201 292.797516,417.066803 
	C295.656097,417.787598 298.036926,419.350800 298.263031,422.758057 
	C298.502625,426.368469 296.315826,428.541565 293.303619,429.405609 
	C286.331909,431.405426 279.465881,435.982361 271.906860,430.790680 
	C270.840546,430.058380 268.990356,430.413300 267.499664,430.362305 
	C260.658966,430.128387 258.660370,428.016144 258.632996,421.235596 
	C258.622681,418.679413 259.349762,416.324158 259.923340,413.895630 
	C260.777374,410.279816 262.386383,406.716919 261.214203,402.202332 
	C248.976135,405.982483 236.825775,409.023895 224.328873,406.728241 
	C223.363235,409.657562 224.849060,411.050049 225.729630,412.554047 
	C227.505920,415.587952 229.203049,418.681854 230.023163,422.087006 
	C230.778412,425.222687 230.847809,428.381165 227.775620,430.685272 
	C224.636063,433.039856 221.637848,432.732758 218.576477,430.585175 
	C217.214447,429.629730 215.700867,428.882599 214.378586,427.879425 
	C208.656967,423.538574 204.650101,417.691223 202.035934,411.239960 
	C200.409729,407.226837 205.311676,404.734802 206.771362,401.308838 
	C206.885681,401.040527 206.759827,400.669891 206.740646,400.234894 
	C206.413879,399.974670 206.056519,399.646606 205.658249,399.379486 
	C198.609787,394.652130 190.442062,397.636658 182.924454,396.098602 
	C179.267456,395.350403 178.664856,396.857605 178.818283,400.504669 
	C179.118988,407.652863 181.763596,414.606445 180.837906,421.733154 
	C180.400055,425.104065 180.918640,427.851654 183.144730,429.942902 
	C187.400101,433.940460 187.110764,438.061829 184.199097,442.449677 
	C182.375809,445.197388 182.436951,447.345276 184.800095,449.954956 
	C187.278458,452.691895 189.035141,456.034851 186.416214,459.882629 
	C185.695740,460.941071 186.209824,462.133331 186.532867,463.262085 
	C188.289215,469.398773 194.734314,472.679413 201.606598,470.954041 
	C207.544998,469.463196 212.554810,467.404175 218.787582,472.979706 
	C227.192017,480.497864 238.438278,484.449860 249.634399,486.106659 
	C258.338196,487.394592 267.041931,488.379852 275.552673,490.697540 
	C277.303375,491.174316 279.128632,491.479248 280.938477,491.621094 
	C297.849945,492.946747 314.755341,494.385284 331.684692,495.430969 
	C339.073303,495.887329 346.513580,495.507629 354.317963,495.507629 
	C352.087585,491.238403 347.152161,493.742798 344.787140,489.799377 
M357.802460,224.439362 
	C345.434357,230.635895 332.328613,235.081268 319.609863,240.445663 
	C316.479889,241.765808 315.226105,243.145721 316.011292,246.755478 
	C317.419769,253.230499 318.356750,259.817291 319.269592,266.388092 
	C320.046783,271.982605 322.525146,273.722961 327.565857,271.256470 
	C338.296295,266.005920 350.034271,263.086639 360.370850,256.960358 
	C365.798401,253.743546 372.196045,252.130173 377.205322,248.669998 
	C381.055359,246.010544 384.002228,242.722412 389.117737,243.013489 
	C390.005707,243.064011 391.052551,242.434875 391.834412,241.859360 
	C394.728912,239.728851 397.939941,239.371841 401.342560,239.939056 
	C403.027069,240.219864 404.734711,240.260681 406.252502,239.531570 
	C412.418549,236.569595 419.271088,236.248459 425.719330,235.911789 
	C443.252136,234.996384 459.446198,228.884491 476.119049,224.595886 
	C479.572113,223.707657 480.866699,221.505386 480.701019,217.958160 
	C480.499451,213.642670 480.555176,209.311554 481.243744,205.005432 
	C484.255524,186.170746 487.742432,167.390076 488.511749,148.276047 
	C488.645630,144.949265 489.557495,141.408386 487.413391,137.781326 
	C482.158508,140.395370 477.355927,143.165817 472.984131,146.814514 
	C466.996002,151.812256 462.218750,158.283737 455.170319,161.963913 
	C446.044495,166.728729 436.943542,171.814987 427.623932,175.872604 
	C412.743439,182.351318 401.057648,192.645569 388.897095,202.629105 
	C379.278412,210.525879 370.108856,219.070679 357.802460,224.439362 
M78.499825,208.019516 
	C81.026810,209.272400 83.895660,210.108475 86.020714,211.851395 
	C94.540596,218.839325 104.781502,222.602951 114.734795,226.441269 
	C127.991081,231.553299 139.698959,238.809357 150.754456,247.454636 
	C158.663437,253.639374 167.309357,258.537354 176.464401,262.715515 
	C191.402847,269.533142 206.015182,277.070618 221.433624,282.812225 
	C223.486984,283.576874 225.454407,285.203278 228.144379,283.737244 
	C227.066269,279.957214 225.874756,276.352905 225.025269,272.669708 
	C223.676682,266.822662 218.780594,262.728455 212.915421,262.934814 
	C208.088013,263.104645 203.489761,261.938568 201.440063,257.423645 
	C197.309372,248.324829 193.636261,238.936966 198.233704,228.622986 
	C187.742432,224.432327 177.075104,220.564499 166.352188,216.803329 
	C154.738464,212.729706 143.463089,207.716141 132.059006,203.090759 
	C119.534454,198.010956 109.019745,190.787872 99.743607,181.184601 
	C88.524208,169.569550 77.707321,157.486832 64.574463,147.897934 
	C58.971779,143.807159 54.009892,138.531082 46.817226,137.123093 
	C41.764828,136.134048 37.493782,133.793793 33.454834,130.707672 
	C26.893831,125.694458 20.185076,120.874619 13.512968,115.954193 
	C11.683096,118.056458 11.534156,120.023071 11.378917,122.001137 
	C10.432384,134.061890 10.501807,146.150803 10.218754,158.232300 
	C10.124311,162.263397 11.451116,164.899170 14.765971,166.859940 
	C21.485445,170.834579 28.689781,174.205475 34.773712,178.994659 
	C48.395374,189.717407 63.198235,198.551437 78.499825,208.019516 
M443.333466,287.463654 
	C442.506866,291.753967 441.251221,296.043304 443.091125,300.865845 
	C446.164001,298.326721 448.818970,296.520203 447.976990,292.049774 
	C447.425018,289.118896 447.646393,285.626038 448.753143,282.881592 
	C451.462921,276.162170 451.627533,268.922363 453.751099,262.133087 
	C454.723816,259.023102 454.674683,255.216095 458.806732,253.288513 
	C459.187042,257.476685 461.033875,261.142395 460.130463,264.935272 
	C458.696899,270.953705 464.101105,276.593811 460.880219,282.663269 
	C460.680176,283.040222 461.604523,284.074921 462.088989,284.743317 
	C464.118896,287.543732 465.828735,290.331635 461.964294,292.921814 
	C463.559662,294.577545 465.243378,294.444855 465.416809,292.915009 
	C465.790741,289.616333 468.106720,286.585938 467.696442,283.539001 
	C467.155243,279.519592 469.598419,276.037628 468.473297,271.831665 
	C467.698242,268.934296 469.098389,265.273071 470.088043,262.130127 
	C471.430420,257.867065 471.181732,252.947372 475.303345,248.552704 
	C478.121155,257.389526 476.920471,266.023895 479.348297,274.045990 
	C479.970642,276.102325 479.685150,278.518341 480.810883,280.668762 
	C482.088379,283.109009 484.661255,285.629395 480.409332,288.116089 
	C478.806305,289.053558 480.411957,290.760742 481.122833,292.039154 
	C482.294495,294.146149 484.090424,296.158783 482.838287,298.379120 
	C480.921692,299.917572 479.174164,298.383942 477.473938,299.256561 
	C476.646729,302.690887 477.684753,304.684692 481.573883,304.622894 
	C483.906433,304.585846 486.239960,304.614899 488.572754,304.587738 
	C491.534180,304.553284 492.583893,303.422607 492.049255,300.185333 
	C489.317505,283.643677 487.778717,266.886932 483.367218,250.653976 
	C482.040955,245.773911 483.655548,240.637146 481.455566,235.880661 
	C480.430389,233.664230 479.649384,232.354172 476.702332,233.077286 
	C460.755188,236.990250 444.893372,240.988388 428.468750,243.055588 
	C415.997772,244.625183 403.325836,246.499908 391.247742,250.965668 
	C382.377808,254.245224 373.054077,256.484955 365.100830,261.741913 
	C357.265381,266.921021 348.144684,269.110260 339.901978,273.396118 
	C334.257233,276.331177 327.868103,278.841522 321.057343,279.083099 
	C321.033142,287.765656 322.969727,295.716309 323.852417,303.783661 
	C324.302856,307.900269 326.528931,309.409698 330.464142,309.622131 
	C337.324677,309.992554 342.431091,313.707001 346.920532,318.647247 
	C352.090485,324.336365 358.053009,329.094299 364.874390,332.717010 
	C366.291473,333.469604 367.683075,333.429260 369.203705,332.912292 
	C373.615143,331.412567 378.091431,330.100800 382.485443,328.553864 
	C384.132690,327.973938 386.175415,327.618561 386.550140,325.340118 
	C387.031769,322.411682 383.248413,324.280518 382.903809,321.685089 
	C383.575104,318.689453 390.122375,316.302185 384.949249,311.678741 
	C384.822327,311.565308 385.190887,310.747223 385.467346,310.355988 
	C388.080383,306.658691 387.872589,302.229462 388.780640,298.075256 
	C389.941223,292.765991 390.117981,286.995514 395.332336,281.932343 
	C395.393188,293.769501 399.261658,304.061096 398.629395,315.157318 
	C399.316833,316.545258 401.990631,316.260834 402.303009,318.316284 
	C401.788483,321.047211 398.636658,319.596283 397.614258,321.494659 
	C404.968231,323.226135 407.544678,322.937256 412.127014,319.783417 
	C409.991089,318.364899 407.034119,320.683014 405.040588,317.872925 
	C407.634247,315.108246 409.271973,311.675354 409.230988,307.837555 
	C409.149658,300.222687 410.487030,292.812286 412.155640,285.467560 
	C413.196716,280.885071 413.732788,275.946411 417.406616,271.814178 
	C418.856049,274.689209 418.910797,277.034424 419.421753,279.281738 
	C421.255280,287.346130 418.729431,296.162384 423.666656,303.685181 
	C424.344849,304.718475 424.349731,305.913177 423.177155,306.798157 
	C422.114746,307.599976 422.228180,308.471191 423.112976,309.307892 
	C424.158081,310.296143 425.206940,310.050903 426.247406,309.249451 
	C427.520477,308.268829 428.339325,306.918243 428.244659,305.390167 
	C427.976562,301.062653 430.404846,297.370728 430.590393,292.891754 
	C430.827271,287.174927 432.351654,281.131287 433.960663,275.393768 
	C435.012177,271.644226 434.838196,267.197418 439.010132,264.089844 
	C439.531311,266.185150 439.699188,267.871857 440.359802,269.336304 
	C442.858398,274.875031 440.732086,281.160156 443.333466,287.463654 
M394.326813,495.470825 
	C399.450012,494.988129 404.602386,494.707275 409.689056,493.971802 
	C416.090942,493.046173 422.409363,491.014923 428.816254,490.755035 
	C445.306152,490.086243 459.147156,484.085144 470.416168,472.099396 
	C478.620819,463.372803 477.607208,460.518402 466.289032,457.184265 
	C455.640045,454.047241 444.812012,451.468811 434.950409,445.805420 
	C424.950531,440.062592 414.317047,435.679199 402.200897,438.202942 
	C400.466736,438.564148 398.522186,438.294647 396.738251,437.969757 
	C390.122742,436.765167 383.021423,438.412415 376.833282,434.538818 
	C376.113312,434.088165 374.871643,434.416595 373.876251,434.468811 
	C364.371796,434.967468 355.488007,432.354431 346.724091,429.105347 
	C341.148651,427.038300 336.540100,423.203827 331.010834,420.330475 
	C331.110168,428.704773 328.163544,437.031189 334.256287,444.451538 
	C331.636749,446.026733 329.470825,446.911560 327.278961,445.801331 
	C326.475128,437.562958 325.453217,429.713440 325.035736,421.831940 
	C324.783264,417.065521 321.796936,416.219543 318.192505,415.523132 
	C314.710876,414.850403 315.125549,419.107819 312.657501,419.819336 
	C312.269836,419.540283 311.774109,419.335175 311.517303,418.964508 
	C311.088989,418.346375 310.813660,417.622314 310.183502,416.362030 
	C311.313934,420.896088 313.099670,423.603394 315.640656,425.042572 
	C321.423035,428.317566 323.244110,433.224274 319.975677,439.372925 
	C317.512024,444.007660 318.661469,446.736908 323.053833,448.358490 
	C329.692841,450.809570 333.490173,455.999268 336.238983,461.944611 
	C337.436279,464.534241 338.757660,465.583405 341.372894,465.551575 
	C345.651703,465.499573 346.540894,467.741150 344.366272,470.933746 
	C341.588013,475.012482 343.606323,476.493042 347.207977,477.716553 
	C349.793671,478.594879 353.111389,478.451080 354.301727,481.652710 
	C355.567383,485.057129 358.073975,486.403076 361.431274,487.058807 
	C365.235657,487.801910 369.157471,488.755707 367.112549,494.608490 
	C376.001892,492.327087 384.321991,488.936310 392.190796,495.405426 
	C392.497375,495.657501 393.164703,495.470795 394.326813,495.470825 
M449.641968,91.135338 
	C440.253967,101.925186 428.785797,110.505142 418.403442,120.236092 
	C413.218536,125.095695 408.517609,130.504227 402.682343,134.751587 
	C393.040497,141.769699 384.341492,149.983658 374.688721,157.051193 
	C368.161163,161.830505 362.783295,168.112137 355.347168,171.832458 
	C352.513184,173.250320 349.390686,174.529694 347.003876,177.172440 
	C353.212769,182.638428 360.739166,185.198364 367.165039,189.582855 
	C371.112518,192.276260 374.601624,195.697525 379.057617,197.739288 
	C381.619537,198.913162 383.533020,199.110962 385.847961,197.193680 
	C391.759247,192.297760 397.452240,187.217484 402.481232,181.386520 
	C407.099335,176.031937 412.440277,171.258743 419.225189,169.140625 
	C429.451813,165.948090 438.755646,160.401764 449.217041,157.857895 
	C450.879791,157.453598 452.365051,156.033783 453.765045,154.880356 
	C463.766815,146.640121 472.613586,136.923386 484.219086,130.741867 
	C488.098572,128.675522 488.924316,125.610992 488.644836,121.622955 
	C487.596436,106.663040 483.446594,92.590736 476.681183,79.268456 
	C474.417633,74.811089 472.806488,74.517395 469.253052,78.302780 
	C465.734589,82.050911 461.734619,84.785439 456.888306,86.417648 
	C454.334351,87.277802 452.157623,88.842300 449.641968,91.135338 
M290.116638,97.624260 
	C291.588501,96.218506 294.161713,95.910263 294.542816,93.284920 
	C286.628662,89.262070 278.462219,85.826317 271.043213,81.193619 
	C254.693054,70.984016 238.563477,60.482658 220.386185,53.625820 
	C217.513016,52.542007 215.207977,52.331207 212.344223,53.581673 
	C202.660095,57.810272 194.549133,64.509521 185.657578,69.888672 
	C175.966812,75.751335 168.199265,83.685623 159.116333,90.072075 
	C156.402634,91.980156 156.347565,93.717087 158.911819,95.998367 
	C163.886337,100.423935 168.963455,104.828934 172.605896,110.482948 
	C174.229782,113.003685 176.452957,114.404617 179.132599,114.470322 
	C188.893784,114.709663 197.907471,118.558914 207.421539,120.132759 
	C219.726181,122.168243 231.724945,126.222252 243.503052,130.576172 
	C245.243317,131.219498 246.651474,131.057617 248.166687,129.995163 
	C257.707611,123.305191 267.435760,116.870529 276.789825,109.930687 
	C281.439819,106.480827 284.686279,101.353668 290.116638,97.624260 
M18.569986,293.921509 
	C18.502934,296.085388 18.394447,298.248962 18.376354,300.413239 
	C18.314445,307.820099 18.335941,307.780701 25.690887,309.529510 
	C35.913795,311.960266 45.917316,314.755035 54.601151,321.235199 
	C60.016453,325.276276 66.686714,326.621002 73.315010,327.691986 
	C78.715294,328.564484 84.330383,328.918640 89.421326,330.716888 
	C98.547295,333.940430 107.664268,337.114471 117.255371,338.396820 
	C125.397957,339.485535 134.029831,341.587128 139.903000,332.793274 
	C140.585709,331.771057 142.093369,331.324310 143.155518,330.526825 
	C147.995468,326.892792 153.918381,326.432159 159.460205,324.789856 
	C167.398651,322.437286 175.461548,322.289673 183.621964,322.472534 
	C194.367004,322.713287 205.030045,321.566223 215.740952,320.275940 
	C210.850876,318.566345 205.987411,317.016296 201.005066,316.332764 
	C190.331741,314.868530 179.361755,314.858093 168.941467,312.421204 
	C152.467102,308.568573 136.344421,303.212128 120.072784,298.492523 
	C112.098915,296.179688 103.696213,295.524872 95.914658,292.542297 
	C83.091957,287.627594 71.243523,280.312683 57.740311,277.037079 
	C56.155792,276.652710 54.763618,275.752167 52.979599,275.821594 
	C43.155144,276.203949 33.352364,276.049988 23.932732,272.748352 
	C20.529215,271.555389 19.375858,272.613739 19.343906,276.047516 
	C19.291286,281.702606 19.786785,287.383606 18.569986,293.921509 
M87.052002,32.442909 
	C83.535851,30.306017 80.019691,28.169123 76.341553,25.933784 
	C70.805084,31.874269 68.086143,39.156601 64.673546,46.131973 
	C60.633194,54.390461 60.194096,62.778297 62.187042,71.365074 
	C65.532318,85.778503 72.816185,97.907631 83.191620,108.598465 
	C88.944542,114.526276 94.706558,120.016899 102.089966,123.723488 
	C104.088142,124.726593 105.324722,126.569832 106.668449,128.260101 
	C117.765831,142.219467 132.629166,151.590866 147.830551,159.960983 
	C156.620651,164.800980 164.597427,170.690262 172.612122,176.379715 
	C179.694412,181.407227 186.202667,187.567352 192.877243,193.328598 
	C195.467270,195.564209 198.153580,197.688293 201.564117,200.495346 
	C202.768448,194.279343 203.270218,188.821381 206.660049,184.894989 
	C198.443100,175.204361 188.548843,168.327179 179.747894,160.247147 
	C172.826096,153.892334 164.977142,148.231186 156.753128,143.685623 
	C144.609253,136.973480 133.712326,129.083054 124.495224,118.667999 
	C112.288849,104.875145 106.914848,89.391678 110.384720,70.935364 
	C111.718506,63.840881 111.928032,56.503757 103.639954,52.487244 
	C102.261604,51.819275 101.465240,50.017113 100.292206,48.847069 
	C95.441284,44.008492 93.062988,37.221886 87.052002,32.442909 
M48.400131,325.220551 
	C40.551327,317.987854 30.367977,317.350281 20.650528,315.391479 
	C17.698469,314.796448 16.429974,315.901581 16.211456,318.986725 
	C15.730244,325.780762 15.260322,332.603424 14.183439,339.317780 
	C13.456116,343.852631 15.136574,344.210754 19.118778,344.733154 
	C32.500137,346.488617 46.101376,347.281158 57.807655,355.795685 
	C66.404610,362.048706 76.899986,363.654938 87.171722,361.671295 
	C95.050468,360.149780 102.501183,360.590027 108.736900,364.774506 
	C116.392761,369.912018 125.382423,372.136536 132.894943,377.378784 
	C135.583893,379.255157 138.722794,380.770966 141.879669,381.640381 
	C152.233643,384.491913 161.414780,385.920929 169.753433,374.225616 
	C170.697708,372.901215 171.605713,371.410400 173.765991,371.104065 
	C176.525360,373.501343 178.559692,376.441742 178.395218,380.412750 
	C178.244919,384.041229 180.030411,386.097839 183.329010,386.876160 
	C186.343307,387.587463 189.379715,387.975952 192.537720,388.161133 
	C197.287628,388.439636 202.494354,386.575165 206.877686,390.088623 
	C208.339600,391.260437 210.042404,393.351776 211.890381,390.855438 
	C213.663635,388.460083 211.166321,387.393860 209.833557,386.061005 
	C203.509598,379.736633 196.106735,374.421997 191.792389,366.224335 
	C190.625320,364.006866 188.466736,362.511932 186.074478,361.570251 
	C177.210236,358.080994 167.700485,357.380402 158.472992,355.654633 
	C150.784241,354.216705 144.074539,351.987213 139.348724,345.523193 
	C138.241211,344.008301 136.920776,343.374359 135.115356,343.440338 
	C118.340843,344.053345 102.043327,341.695099 86.262558,335.822540 
	C83.811829,334.910553 81.087875,334.610748 78.457970,334.323792 
	C68.112450,333.194977 58.155785,330.827118 48.400131,325.220551 
M170.919800,287.529236 
	C173.726837,289.617706 176.537582,291.701233 179.340118,293.795715 
	C185.140793,298.130829 191.315048,302.171326 198.645096,302.527069 
	C207.449768,302.954407 216.084793,302.784515 224.280899,307.138977 
	C228.265305,309.255859 233.660172,307.128265 234.387741,304.506989 
	C235.722855,299.696869 232.880569,293.518982 228.914886,291.724457 
	C216.058731,285.906921 202.147522,282.553467 190.060944,274.904358 
	C187.433060,273.241272 184.287003,272.336517 181.301208,271.310699 
	C172.100830,268.149841 163.779572,263.375427 155.614975,258.149323 
	C143.500092,250.394669 131.527634,242.381073 118.519501,236.098969 
	C112.984360,233.425827 107.701614,230.233536 102.193382,227.500443 
	C92.086357,222.485535 82.310600,216.246948 71.637222,213.070877 
	C58.412338,209.135590 47.236134,202.468094 37.364582,193.481140 
	C30.078703,186.848099 21.468571,182.613861 13.239959,177.626419 
	C12.506463,177.181854 11.657128,177.150879 10.236231,178.396866 
	C11.705156,188.535706 11.112272,199.308609 11.555404,210.057968 
	C11.663677,212.684448 13.959682,213.277496 16.227207,213.721863 
	C21.122559,214.681259 26.027998,215.643570 30.851561,216.902557 
	C38.700497,218.951187 46.491390,221.223465 54.297703,223.433411 
	C56.865570,224.160370 59.615623,223.175781 62.142799,224.507721 
	C74.312126,230.921616 87.330803,235.689392 99.059113,242.913956 
	C110.814728,250.155334 122.523422,257.490509 134.156448,264.919739 
	C146.089828,272.540771 158.872864,278.748871 170.919800,287.529236 
M30.012873,77.481712 
	C23.470695,84.879700 16.680719,92.123764 14.226003,102.455353 
	C22.478645,106.209381 29.237329,112.471138 37.870415,114.639328 
	C45.856602,116.645065 52.539116,121.694679 60.501411,123.429497 
	C66.049637,124.638344 69.683792,129.404175 75.097992,130.726837 
	C83.331017,132.738129 90.514900,136.780960 97.155289,141.961365 
	C100.955391,144.925964 104.940536,147.763672 109.469460,149.424713 
	C111.798584,150.278946 113.745956,151.373795 115.106712,153.263474 
	C121.170891,161.684814 130.810333,166.372864 137.136948,174.502396 
	C137.332947,174.754242 137.703506,174.862595 137.936920,175.094055 
	C147.737747,184.812988 159.096649,193.216568 167.109375,204.405518 
	C174.170273,214.265305 184.142548,216.934708 194.412903,220.061752 
	C195.840897,220.496521 197.366226,220.873810 198.676041,219.693024 
	C200.867065,217.717819 200.432175,208.016922 198.058609,205.958282 
	C188.498154,197.666443 179.257935,188.957779 169.249344,181.246887 
	C162.481552,176.032822 154.989471,171.388382 147.162933,168.018204 
	C138.499420,164.287643 130.740417,159.239029 123.368637,153.760635 
	C115.131699,147.639313 107.195419,140.995682 99.893799,133.656296 
	C93.021614,126.748558 84.756966,121.586845 77.963364,114.258423 
	C66.342636,101.722870 58.874615,87.775284 55.335556,71.313271 
	C54.473667,67.304153 54.596519,63.421864 55.033268,59.436878 
	C55.717621,53.192642 57.472603,47.240814 59.711552,41.246334 
	C49.966354,53.274429 40.955566,65.714882 30.012873,77.481712 
M113.491798,83.281830 
	C117.088364,94.397514 121.385864,105.014183 129.903168,113.600739 
	C135.493073,119.236115 141.919922,123.679558 147.895157,128.706085 
	C154.752197,134.474396 162.116577,139.704987 169.429764,144.439026 
	C182.605911,152.968338 192.450409,164.926300 204.455627,174.541092 
	C207.601501,177.060608 210.467896,179.996399 215.213486,181.355118 
	C214.070801,174.325089 214.112625,168.109390 217.863968,162.474060 
	C218.921295,160.885696 217.690292,159.653061 216.519485,158.637833 
	C212.245911,154.932251 208.151031,150.985947 203.637863,147.597855 
	C190.690735,137.878296 178.486145,127.431717 168.657074,114.430511 
	C167.166641,112.459061 165.550446,110.174591 163.448700,109.146523 
	C155.779739,105.395287 151.182770,98.657745 146.180923,92.307327 
	C144.182098,89.769600 142.155670,87.250679 139.092178,86.226204 
	C134.625626,84.732552 131.459503,81.691025 128.270386,78.487885 
	C124.288254,74.488251 120.121498,70.672432 115.457695,66.227570 
	C115.343948,72.372658 114.909515,77.491348 113.491798,83.281830 
M466.365295,311.917877 
	C464.142242,312.596313 461.787903,313.001617 459.717194,313.996948 
	C445.013184,321.064850 429.449890,325.010345 413.342010,327.045380 
	C408.415375,327.667786 403.087708,327.063354 398.683472,329.391541 
	C390.626923,333.650421 382.068756,336.302307 373.314117,338.192871 
	C358.717316,341.345001 345.233612,347.176453 331.974457,353.784058 
	C328.509552,355.510773 328.764496,358.162262 329.417419,360.944336 
	C330.183685,364.209412 332.877625,363.023071 334.765350,362.542297 
	C343.329376,360.361176 351.852509,357.824371 359.245331,352.863129 
	C362.790833,350.483734 366.251068,349.337952 370.404846,349.621979 
	C375.466278,349.967987 380.403687,349.385040 384.874237,346.745758 
	C397.127167,339.512207 410.013336,337.494598 423.699188,341.936310 
	C425.477966,342.513611 427.281799,343.091095 429.000397,342.020569 
	C433.168213,339.424347 437.535461,339.920990 441.398529,342.060974 
	C451.323608,347.558929 460.512512,345.359589 469.901398,340.632477 
	C475.845154,337.639954 482.161407,335.478149 489.091064,336.469666 
	C492.275452,336.925262 493.693970,335.328491 493.658508,332.158539 
	C493.595215,326.497223 493.519897,320.832153 493.657501,315.173737 
	C493.747742,311.462463 492.025574,310.106537 488.512207,310.189545 
	C481.371582,310.358215 474.191345,309.880524 466.365295,311.917877 
M146.828629,340.099579 
	C147.959839,343.333923 150.418533,345.756714 153.414047,346.504089 
	C161.876312,348.615417 169.691986,353.181732 178.850891,352.763214 
	C187.331635,352.375641 194.411423,355.026550 198.673096,363.224548 
	C201.544052,368.747314 206.307953,372.844238 210.749908,377.090973 
	C212.052780,378.336517 213.406158,380.244324 216.125824,379.310028 
	C216.479111,375.843384 213.965576,372.692841 215.501389,368.837402 
	C219.862549,357.889252 226.976074,348.490631 232.360123,338.120911 
	C235.725754,331.638641 237.597244,325.881439 236.174332,318.847137 
	C234.468536,310.414185 233.976639,310.202881 226.708939,315.865967 
	C230.071091,320.394653 229.873505,321.122772 224.264587,323.174530 
	C219.733810,324.831879 215.134476,326.385956 210.278809,326.691772 
	C195.054535,327.650665 179.807159,328.298279 164.603546,329.505127 
	C157.350052,330.080902 150.782501,332.729248 146.828629,340.099579 
M271.391296,338.410675 
	C272.083923,343.042267 272.512878,347.683868 271.070679,352.248413 
	C268.667847,359.853424 269.058472,368.067169 265.895355,375.515289 
	C264.857361,377.959442 265.819366,380.079102 268.437622,380.407776 
	C271.275726,380.764008 274.287415,381.522888 277.633484,379.933960 
	C275.554688,374.927612 277.664368,370.452454 279.349701,365.986328 
	C282.785675,356.881042 284.816528,347.569061 284.548584,337.779816 
	C284.197876,324.963959 283.973083,312.144592 283.719208,299.326233 
	C283.609070,293.766846 282.342194,292.605103 276.705566,293.563049 
	C265.070618,295.540497 253.876694,294.382355 243.144669,289.308136 
	C242.203781,288.863251 241.204773,287.797302 239.849609,289.003632 
	C240.247620,298.689301 240.342896,308.636627 241.857910,318.170441 
	C243.998520,331.641052 237.043198,342.034515 232.719299,353.267059 
	C229.909286,360.566864 225.152588,367.127045 223.220596,375.091309 
	C224.559052,375.843140 225.838760,376.324982 226.823029,377.156525 
	C230.728424,380.455902 232.731628,378.994293 234.409851,374.738953 
	C235.358673,372.333038 237.292038,370.306641 238.830063,368.143494 
	C244.215073,360.569763 251.190125,353.502136 252.070480,343.905090 
	C253.154907,332.083069 257.359833,320.907379 258.128632,309.078491 
	C258.469269,303.837494 257.652252,302.645905 252.328934,302.401794 
	C250.076492,302.298492 247.199799,303.144348 246.299835,299.762390 
	C256.133606,293.182343 267.094482,298.060272 269.341003,309.751343 
	C271.106903,318.941254 271.837036,328.194977 271.391296,338.410675 
M293.304474,179.322891 
	C290.853607,181.473465 291.047607,181.748489 294.556610,183.371017 
	C306.862366,189.061081 317.972870,196.680832 327.640717,206.071930 
	C333.782806,212.038254 340.515259,217.096130 347.273926,222.217621 
	C348.831482,223.397873 350.286835,223.568893 351.829376,222.449722 
	C360.409790,216.224426 368.972778,209.975128 377.456329,203.796249 
	C352.223206,188.255569 327.308502,172.914307 300.686218,159.235596 
	C301.728210,161.912415 302.623505,163.664307 301.280365,166.007599 
	C300.093903,168.077484 299.663025,170.719406 299.423828,173.160248 
	C299.079407,176.675369 297.460510,178.695618 293.304474,179.322891 
M127.707062,195.782135 
	C139.346924,199.404297 149.897110,206.065750 162.190170,208.671326 
	C162.116302,206.335068 160.598328,205.661835 159.543106,204.729004 
	C148.962738,195.375854 138.473129,185.946121 128.265518,176.163071 
	C112.651146,161.198105 95.509026,148.307953 75.658516,139.039169 
	C56.268143,129.985275 36.205627,122.151833 18.369850,109.991982 
	C17.828506,109.622902 17.158098,109.402016 16.555079,110.022758 
	C16.258621,111.026779 16.995077,111.601822 17.590487,112.098724 
	C26.809391,119.792419 36.297554,127.150032 47.598373,131.554382 
	C55.267765,134.543442 62.295776,138.378082 68.809219,143.469421 
	C82.924698,154.503021 94.765701,167.840851 107.196785,180.579544 
	C113.064621,186.592560 119.341080,191.934174 127.707062,195.782135 
M262.343597,385.304596 
	C259.010254,381.264557 257.977020,376.726410 259.798706,371.782440 
	C263.485870,361.775360 265.738953,351.478394 267.067261,340.895111 
	C268.380341,330.433075 267.228363,320.390198 263.828308,310.516754 
	C263.049255,312.485931 262.694061,314.431030 262.337646,316.375854 
	C259.442322,332.174286 258.618134,348.668152 249.397034,362.549072 
	C242.977905,372.212036 239.979416,384.248352 229.608658,391.277008 
	C227.976822,392.382965 225.434830,394.437592 227.197906,397.088165 
	C228.799927,399.496582 231.594513,399.852905 234.383286,399.409790 
	C234.869431,399.332550 235.321243,399.055481 235.806320,398.953094 
	C242.279617,397.586212 248.737488,396.136230 255.236603,394.904266 
	C262.468719,393.533325 262.533142,393.563599 262.343597,385.304596 
M85.631226,268.544312 
	C87.416664,262.672638 89.202103,256.800964 91.113823,250.514023 
	C97.978653,259.205780 95.213829,270.106110 100.328621,278.837616 
	C102.271751,272.063049 105.555046,265.840576 106.355453,258.847351 
	C106.417313,258.306824 105.967613,257.482452 105.499603,257.141052 
	C100.272980,253.328430 95.445595,248.526321 89.632866,246.057373 
	C79.538170,241.769623 69.551270,237.308426 59.718746,232.468903 
	C58.381939,231.810928 56.929844,231.057648 55.482807,232.105621 
	C53.934711,233.226761 54.738186,234.703720 54.934471,236.187561 
	C55.670601,241.752411 61.216125,246.084305 59.071423,252.404602 
	C58.933144,252.812073 59.629345,253.568512 60.037697,254.082977 
	C61.126579,255.454803 61.619160,256.839935 61.200626,258.689484 
	C60.375355,262.336456 62.501991,263.972809 66.093330,265.081207 
	C67.876137,256.690857 69.604294,248.627029 73.052109,239.535034 
	C77.748917,251.615234 79.922752,262.803589 81.598595,274.443298 
	C84.200012,274.084808 86.205734,272.734131 85.631226,268.544312 
M258.014740,267.772552 
	C249.834442,271.904053 240.997040,272.442535 232.013794,271.910614 
	C232.491943,276.667603 233.696930,278.917053 237.156448,280.127075 
	C251.124695,285.012665 265.131195,289.844269 280.317719,288.560425 
	C284.134491,288.237732 286.041809,285.631500 286.425354,282.369904 
	C286.740051,279.693939 288.204651,275.836731 284.242615,274.569885 
	C278.556244,272.751740 274.477142,269.142609 270.779053,264.719604 
	C267.896515,261.272034 264.607910,261.309998 261.415649,264.466064 
	C260.469788,265.401184 259.542877,266.355408 258.014740,267.772552 
M293.429565,307.910461 
	C290.772034,308.470398 291.374298,310.634918 291.410645,312.335114 
	C291.563202,319.475525 291.468048,326.598328 292.015381,333.761627 
	C292.716522,342.937439 291.622131,352.196289 289.835205,362.322083 
	C294.360748,358.749084 299.227753,358.073303 303.652130,356.232178 
	C307.068085,354.810730 308.961151,352.588196 308.686157,348.583832 
	C308.209900,341.649323 309.181946,334.733734 308.884369,327.745911 
	C308.249115,312.826935 308.588806,312.812469 293.429565,307.910461 
M248.054047,143.366150 
	C251.715454,145.205414 255.354004,143.228226 257.300293,143.431351 
	C235.483444,134.401398 210.748688,129.850708 186.653595,122.653732 
	C188.612793,126.317047 190.273804,129.985733 193.752075,131.751373 
	C199.915375,134.879990 204.871399,139.455643 209.986511,143.932800 
	C214.051331,147.490662 217.491928,151.904861 223.203262,154.408813 
	C227.905640,143.371567 237.564987,143.077667 248.054047,143.366150 
M218.534851,231.882126 
	C219.510605,234.540237 218.193481,239.019577 223.280960,238.516220 
	C230.223618,237.829315 237.122253,236.690811 244.067001,236.034134 
	C248.252258,235.638397 248.618759,233.491562 247.369354,230.277298 
	C245.441223,225.316910 243.389313,220.404373 241.483002,215.435837 
	C239.714539,210.826630 237.110657,207.756119 231.507248,208.346008 
	C224.677643,209.065002 219.955872,212.276428 218.290527,217.194687 
	C216.694977,221.906830 218.874115,226.414978 218.534851,231.882126 
M228.419769,203.604477 
	C235.721634,202.346069 242.203247,203.325348 246.813293,211.335144 
	C246.179291,203.868271 246.848648,197.616135 248.626968,191.483826 
	C250.813553,183.943558 250.794250,183.957886 243.607376,180.695541 
	C242.094193,180.008652 240.660965,179.144745 239.195328,178.354187 
	C237.676498,177.534943 236.015762,177.029724 234.383881,177.600449 
	C230.469086,178.969559 226.256088,179.968231 222.856644,182.181244 
	C219.966370,184.062775 221.801666,188.125168 221.069901,191.141373 
	C220.207718,194.695129 219.452347,198.275681 218.702347,201.855423 
	C218.322479,203.668579 218.056320,205.505569 217.590027,208.187180 
	C221.391251,205.920135 224.292053,204.299271 228.419769,203.604477 
M308.133942,362.600952 
	C307.296478,361.497009 306.253967,361.512695 305.016998,361.863464 
	C299.042664,363.557465 293.914886,367.107117 288.251984,369.483673 
	C287.577728,369.766632 286.824860,370.586426 286.674072,371.280304 
	C285.183380,378.140167 282.254669,384.371643 279.154388,390.636902 
	C276.878174,395.236938 278.329742,396.777374 283.593323,397.995392 
	C287.402679,398.876862 291.764313,398.336395 294.784912,401.504852 
	C298.830963,405.748901 304.172821,405.520386 309.375793,406.637970 
	C310.409454,401.343445 309.744354,397.849854 304.924011,394.872498 
	C292.371124,387.118896 292.657562,376.259766 305.303802,369.134766 
	C307.911499,367.665588 309.047089,366.069946 308.133942,362.600952 
M292.968597,224.143417 
	C292.220520,214.791672 293.842224,205.047409 288.633331,195.659210 
	C285.971497,203.242294 285.485687,210.243546 284.955566,217.381256 
	C284.232788,227.112427 284.064240,236.889328 283.118134,246.550583 
	C282.485687,253.008652 284.347656,257.888519 287.595490,262.695160 
	C291.386139,268.305084 296.152954,268.017639 299.708832,262.148743 
	C303.385254,256.080963 303.924530,248.984741 306.250305,242.452881 
	C304.911041,245.697495 303.428345,248.842789 301.673828,251.825012 
	C300.548615,253.737579 299.470551,256.639893 296.646515,255.740448 
	C293.943115,254.879395 293.838348,252.099930 293.804810,249.441544 
	C293.702332,241.316406 293.363831,233.194260 292.968597,224.143417 
M222.158905,256.196075 
	C224.529144,259.599152 227.642670,261.790314 231.727432,262.891663 
	C235.690765,263.960266 239.658615,263.641205 243.626068,263.642090 
	C253.289871,263.644226 259.262634,256.114594 257.070068,246.693390 
	C256.383423,243.742996 255.287201,240.887939 254.004211,236.795471 
	C254.318939,241.870987 254.821930,245.666687 253.864807,249.354080 
	C246.523468,250.744080 248.782867,244.934937 248.030594,241.097672 
	C241.403732,242.433670 234.980103,242.925583 228.571884,243.565506 
	C218.173630,244.603836 217.719513,245.660065 222.158905,256.196075 
M279.722839,201.673798 
	C280.046783,199.206284 280.550690,196.746368 280.655334,194.269592 
	C280.844360,189.793961 277.969971,187.685410 271.750122,187.398865 
	C267.371063,187.197113 266.661102,189.991104 266.320770,193.504333 
	C265.809723,198.779816 264.941925,204.019745 264.294708,209.283264 
	C263.547211,215.362213 258.060089,221.536560 264.604187,227.501602 
	C264.687103,227.577194 264.614532,227.823380 264.610107,227.989883 
	C264.402313,229.414948 262.562775,230.345993 263.494354,232.355133 
	C267.914551,234.985275 271.785950,232.772537 276.220673,230.578568 
	C274.002502,228.225143 274.359711,226.402588 276.405151,224.463226 
	C277.841217,223.101578 278.494690,221.115097 278.617004,219.023056 
	C278.937317,213.545807 279.326202,208.072556 279.722839,201.673798 
M315.849670,203.757980 
	C308.033997,198.783920 300.218292,193.809860 292.402618,188.835800 
	C291.976410,189.099686 291.550201,189.363571 291.123993,189.627457 
	C300.998871,199.585083 298.669098,212.658691 300.037506,225.568192 
	C303.786133,222.954041 304.156128,220.162994 304.739410,217.451920 
	C305.475891,214.028839 307.390076,212.539490 311.136597,212.730789 
	C314.533875,212.904251 317.036896,214.116257 319.474579,216.356857 
	C323.763855,220.299286 328.265686,224.015594 332.757660,227.730896 
	C336.987335,231.229263 338.553040,231.030518 342.727722,226.729294 
	C341.696777,223.850052 338.869965,222.668839 336.722992,221.023224 
	C329.733185,215.665741 324.030945,208.782852 315.849670,203.757980 
M337.733673,344.216827 
	C342.456940,338.475525 350.608124,340.606262 356.427460,336.451141 
	C349.908752,330.866425 343.764191,325.563507 337.569763,320.319427 
	C335.770477,318.796204 333.604706,317.929474 331.346436,317.244781 
	C326.388702,315.741608 325.292023,316.676208 325.863831,321.669678 
	C326.222443,324.801392 326.207214,327.975861 326.361267,331.131104 
	C326.620117,336.431488 327.508362,341.615875 328.921539,346.702881 
	C332.184631,347.264343 334.759186,346.356232 337.733673,344.216827 
M19.540720,221.176773 
	C12.200530,218.834244 10.894695,220.274857 12.077622,228.044220 
	C13.406294,236.770752 15.798069,245.203827 18.086271,253.681656 
	C18.463341,255.078705 18.348736,256.918549 20.329134,257.108459 
	C22.112022,257.279449 23.497084,256.337555 24.466236,254.823380 
	C25.454363,253.279541 25.311195,252.102051 23.561543,251.162857 
	C22.507904,250.597290 22.357481,249.013351 22.986240,248.567154 
	C26.908554,245.783722 25.986664,241.133575 27.307110,237.440659 
	C32.617195,222.589905 32.655975,226.129532 19.540720,221.176773 
M238.116119,159.969009 
	C235.046265,160.642532 232.000443,161.714859 228.901245,161.901688 
	C223.437302,162.231094 221.632858,165.890686 220.539276,170.250000 
	C220.115250,171.940216 219.721985,174.000153 221.225540,175.445786 
	C222.948898,177.102753 224.665512,175.735764 226.227859,174.948425 
	C232.970139,171.550644 239.648331,171.800156 246.244934,175.247665 
	C248.874573,176.621979 251.296036,178.127853 253.302765,174.374405 
	C255.558273,170.155655 255.048996,164.240555 251.761230,162.768311 
	C247.725616,160.961182 243.547989,159.207840 238.116119,159.969009 
M317.423431,402.068939 
	C318.507202,404.066803 317.847809,406.219482 317.693237,408.225250 
	C324.238586,409.998108 324.441986,409.849854 324.579163,403.419952 
	C324.614624,401.756378 324.645599,400.092377 324.646851,398.428558 
	C324.653412,389.505280 324.649963,380.582001 324.649963,371.704987 
	C317.867706,371.485931 315.354034,372.586945 315.350525,376.108032 
	C315.342102,384.541382 314.147797,393.100677 317.423431,402.068939 
M260.530334,177.311050 
	C264.226471,175.814926 267.873322,174.177200 271.634369,172.867477 
	C274.642120,171.820068 275.945953,169.883530 275.602051,166.837097 
	C275.342712,164.539841 275.105347,162.196396 274.443024,159.998627 
	C273.448608,156.698990 272.008362,153.620468 267.562012,154.408600 
	C264.157928,155.011978 257.057556,161.721344 257.970337,164.052902 
	C259.815094,168.764954 259.160309,173.233841 257.280334,178.058472 
	C258.664398,177.779602 259.310486,177.649414 260.530334,177.311050 
M212.300858,206.227859 
	C213.078217,199.833221 216.698105,193.710236 214.359268,186.621353 
	C209.286362,187.805008 208.191925,191.851120 207.539139,195.587585 
	C206.691223,200.440903 207.024216,205.494339 206.265442,210.370850 
	C205.038315,218.257492 206.517990,226.396835 203.883224,234.127747 
	C211.293854,233.559570 211.737335,233.025406 211.710327,225.970596 
	C211.686218,219.677460 211.204391,213.371689 212.300858,206.227859 
M314.369049,347.935272 
	C314.552704,349.640503 313.920990,352.256195 316.718384,351.877899 
	C319.398987,351.515411 322.841339,350.835449 322.621277,347.049683 
	C322.067810,337.526825 323.709930,327.805573 320.095459,318.528534 
	C319.360687,316.642670 318.613007,315.084991 316.368286,315.279541 
	C313.855499,315.497314 314.403198,317.580994 314.395172,319.129150 
	C314.346924,328.439392 314.367737,337.750000 314.369049,347.935272 
M308.502808,300.963287 
	C308.502808,295.466187 308.502808,289.969116 308.502808,283.893463 
	C305.579987,285.195404 303.834808,286.195404 301.957947,286.748871 
	C299.906311,287.353851 297.744476,287.644653 295.609863,287.895020 
	C292.281494,288.285431 291.205170,290.129028 291.336151,293.344055 
	C291.547791,298.537201 295.589935,302.481537 302.736664,304.840820 
	C306.160370,305.971069 307.794342,305.172607 308.502808,300.963287 
M295.545654,149.112396 
	C296.150970,148.295914 296.638885,147.432236 296.429535,146.363876 
	C295.679291,142.535721 291.581696,138.842270 288.152557,138.888596 
	C282.116150,138.970184 277.407257,141.954483 276.537323,146.329163 
	C276.381958,147.110367 276.377075,148.019897 276.620361,148.766678 
	C279.018433,156.127777 284.158630,157.929230 290.650421,153.600235 
	C292.284515,152.510544 293.617493,150.969269 295.545654,149.112396 
M256.456665,213.186264 
	C257.790558,203.122589 258.659241,192.980759 262.134033,183.013779 
	C257.881134,182.743027 255.978897,183.954315 254.982132,187.876663 
	C251.438187,201.822189 252.507324,215.861053 253.381989,229.924240 
	C253.479477,231.491699 254.060989,233.153641 255.973297,232.890854 
	C258.078491,232.601578 257.658264,230.675827 257.431427,229.272400 
	C256.615814,224.225998 254.813675,219.270447 256.456665,213.186264 
M37.320896,226.058426 
	C35.003757,227.065598 34.594364,227.371017 36.101463,229.391159 
	C40.042923,234.674332 35.451355,241.829559 40.204498,246.844635 
	C40.464840,247.119293 40.062206,248.106888 39.856293,248.725403 
	C38.292156,253.423645 41.981216,254.129852 44.681984,255.712769 
	C44.510811,253.271942 41.934681,251.501801 44.019466,248.918915 
	C47.179878,245.003372 47.329231,239.996307 48.754547,235.438904 
	C49.910591,231.742462 48.504295,230.143723 45.121567,229.519135 
	C42.449650,229.025803 40.156441,227.696854 37.320896,226.058426 
M308.626221,274.600189 
	C308.626221,267.385498 308.626221,260.170807 308.626221,252.605469 
	C305.240967,262.002808 303.744598,272.176147 292.667664,275.968628 
	C290.738190,276.629242 291.037872,279.140564 291.713470,280.858643 
	C292.438263,282.701874 294.120117,282.199951 295.583008,281.817413 
	C297.343140,281.357086 299.475037,281.326569 300.765289,280.274872 
	C303.201508,278.289215 307.908752,279.981384 308.626221,274.600189 
M110.272705,260.413055 
	C110.093735,260.682983 109.717796,260.993988 109.764252,261.216949 
	C111.401741,269.075134 113.989624,276.754822 114.104454,284.899200 
	C114.117477,285.823364 114.902260,286.361298 115.802582,286.416626 
	C117.206055,286.502899 117.960869,285.566833 118.267426,284.377014 
	C118.887344,281.971130 119.269333,279.501831 119.932594,277.109497 
	C123.114044,265.634155 123.137306,265.636841 112.244469,260.594360 
	C111.804085,260.390503 111.281952,260.363190 110.272705,260.413055 
M191.614731,310.653931 
	C194.910416,310.976440 198.252136,311.798401 201.490570,311.499878 
	C205.920090,311.091522 209.873947,311.337494 213.836166,313.729004 
	C216.888077,315.571045 220.002213,314.803711 222.596634,311.624268 
	C217.098724,308.825623 211.905777,307.134460 205.998901,308.124329 
	C202.908875,308.642181 199.776611,308.247162 196.610901,307.612488 
	C191.045013,306.496613 186.264389,303.456818 180.887787,301.499207 
	C181.536362,308.778595 182.772781,309.881805 191.614731,310.653931 
M33.673141,439.277161 
	C32.536343,438.809479 31.399548,438.341797 29.733509,437.656372 
	C34.834187,444.356445 39.905884,450.282074 44.398903,456.698212 
	C48.874496,463.089478 48.623070,471.107422 52.200615,477.692932 
	C53.934219,461.250153 48.902142,448.051300 33.673141,439.277161 
M267.407990,423.543793 
	C274.385284,422.490234 281.434937,427.747498 289.478394,423.115479 
	C283.716705,420.559875 277.839600,421.409546 273.342346,418.120636 
	C267.978485,414.197937 270.243622,408.122986 269.943970,403.061737 
	C268.161102,403.066162 267.655457,403.492462 267.477509,404.179993 
	C266.199341,409.119019 265.974335,414.277466 264.131958,419.120667 
	C263.369324,421.125458 264.829895,422.531219 267.407990,423.543793 
M212.692627,239.325958 
	C211.597229,235.559067 209.317047,237.819748 207.614899,238.500259 
	C205.956390,239.163315 203.279297,239.270859 203.895676,242.205627 
	C204.709808,246.082016 205.309402,250.075882 206.747818,253.724960 
	C207.823334,256.453461 210.790375,258.039764 213.698807,257.230804 
	C216.375137,256.486420 215.550629,253.755905 215.160522,251.664673 
	C214.434555,247.773041 213.637314,243.894730 212.692627,239.325958 
M219.279968,412.990936 
	C216.124893,408.274445 215.881134,403.461914 218.522400,398.390137 
	C219.427780,396.651611 220.738663,394.483521 217.776062,392.997833 
	C216.215546,394.217621 215.998566,396.082153 214.970795,397.266388 
	C209.052460,404.085510 210.862946,410.546295 215.248093,417.258789 
	C217.291885,420.387299 219.597824,422.874786 223.449951,424.779175 
	C223.851700,420.020477 221.252121,417.008667 219.279968,412.990936 
M293.536469,158.019974 
	C291.331390,158.514496 291.464630,160.244446 291.397980,161.935852 
	C291.342804,163.335648 292.187622,165.080353 290.395386,165.958313 
	C288.133209,167.066483 287.354187,164.690689 285.960815,163.770462 
	C283.648834,166.308121 282.455536,169.396652 280.979431,172.319809 
	C280.071289,174.118286 280.531555,175.506668 282.236664,176.535461 
	C283.917297,177.549438 285.003815,177.025772 285.773346,175.310043 
	C286.639496,173.378922 288.052643,172.581436 290.200043,173.306854 
	C291.821136,173.854477 293.071442,173.207077 294.102966,171.895538 
	C296.436523,168.928467 296.481171,161.352509 293.536469,158.019974 
M253.652359,157.105545 
	C257.808868,156.614136 260.006927,153.885803 262.149414,150.531891 
	C253.652023,147.576584 232.486099,150.517303 229.523987,155.108658 
	C237.751907,153.076248 245.603729,152.540390 253.652359,157.105545 
M276.528687,237.980347 
	C274.550629,236.926987 265.033081,238.181198 263.948151,239.639160 
	C263.849243,239.772095 263.713043,239.899170 263.672089,240.050125 
	C262.821198,243.185287 264.048981,245.981750 265.435760,248.583191 
	C266.874451,251.282043 269.706268,250.744690 272.137512,250.531769 
	C275.438141,250.242691 275.713562,247.556961 276.007874,245.041992 
	C276.257019,242.912796 276.408844,240.772202 276.528687,237.980347 
M154.860550,284.214172 
	C152.372513,285.833191 154.625244,287.340790 155.038452,288.818390 
	C156.500687,294.047150 159.165222,298.959076 159.224823,305.415070 
	C163.759674,301.655823 164.635696,296.614349 165.414536,291.965973 
	C166.015839,288.377228 161.982346,287.554016 159.524475,286.052307 
	C158.265396,285.283081 156.794739,284.860168 154.860550,284.214172 
M132.913467,286.281311 
	C133.903839,282.963745 134.889359,279.644714 135.886749,276.329254 
	C136.349045,274.792572 136.409805,273.303497 134.864456,272.364685 
	C132.244629,270.773102 129.739426,268.889893 125.950119,268.070068 
	C128.162048,275.697693 129.351547,282.895538 129.634445,290.336151 
	C131.953659,289.824280 132.387482,288.423920 132.913467,286.281311 
M316.219635,222.562683 
	C315.514313,225.991180 314.836060,229.399323 316.791290,232.701248 
	C317.554596,233.990280 318.085205,235.729736 319.944366,235.304169 
	C323.221436,234.554001 326.427155,233.492218 330.451599,232.333847 
	C326.356018,227.338226 321.730316,223.911591 317.215546,220.435974 
	C316.168823,219.630157 316.317200,221.254486 316.219635,222.562683 
M140.375488,276.510193 
	C140.566544,283.129913 142.913879,289.183044 144.904861,295.490601 
	C146.798035,294.362122 146.672028,292.679749 147.138596,291.343140 
	C150.869949,280.654266 152.434814,283.018341 140.375488,276.510193 
M408.632721,399.762360 
	C407.936005,396.251648 407.051483,392.809906 405.184265,389.486145 
	C400.772491,396.256531 401.268402,402.013489 406.618774,408.014282 
	C408.162872,405.737091 408.878937,403.286285 408.632721,399.762360 
M303.635162,377.328125 
	C301.080994,383.010864 302.861816,387.421387 308.504486,389.105377 
	C309.508362,385.530212 309.050568,381.902740 308.889893,378.314240 
	C308.685669,373.754517 306.711060,374.109619 303.635162,377.328125 
M75.742905,451.417725 
	C72.482666,455.186371 67.135452,457.419342 67.055252,463.593567 
	C72.842957,459.967621 77.231590,455.140228 79.711998,448.505615 
	C78.565834,449.347260 77.419670,450.188904 75.742905,451.417725 
M177.095154,303.059509 
	C179.003143,296.415283 172.007599,297.254822 169.828156,293.964172 
	C169.748474,299.062897 173.415329,303.130371 172.222427,308.636261 
	C175.055344,307.498383 175.754944,305.418091 177.095154,303.059509 
M315.748352,365.830353 
	C317.986328,365.836060 319.936188,364.879822 321.828217,363.869690 
	C323.778839,362.828247 323.725800,360.911743 323.541016,359.053711 
	C323.398651,357.622162 322.496063,357.181519 321.111176,357.216797 
	C316.394440,357.336975 313.963745,360.728180 315.748352,365.830353 
M317.660217,306.835541 
	C316.815826,299.445007 315.971436,292.054474 315.127045,284.663971 
	C312.980560,291.313843 313.404297,297.938904 314.463867,304.562714 
	C314.693665,305.999451 315.552490,306.939697 317.660217,306.835541 
M461.143158,305.433899 
	C464.423462,307.952240 467.170288,305.787933 469.662506,304.109772 
	C471.190155,303.081116 471.177582,301.098053 469.327667,299.946594 
	C466.611115,298.255737 461.126984,301.453827 461.143158,305.433899 
M421.529297,411.621582 
	C423.579681,408.292450 424.560730,404.882629 422.335785,400.462860 
	C420.406128,404.371948 416.797424,406.600220 417.373871,411.067841 
	C417.834595,414.638580 419.226196,414.006775 421.529297,411.621582 
M33.816425,408.248627 
	C32.159409,408.688690 32.885567,409.909424 33.287025,410.601379 
	C35.983650,415.249237 38.797050,419.829376 41.572613,424.431458 
	C41.943050,424.220795 42.313492,424.010162 42.683929,423.799500 
	C40.793018,418.209167 39.757339,412.194611 33.816425,408.248627 
M56.960423,412.787994 
	C57.630741,415.578247 58.301060,418.368530 59.138924,421.856201 
	C63.297264,412.885284 56.725765,407.759827 53.968952,401.532776 
	C54.280251,405.212494 55.045120,408.761017 56.960423,412.787994 
M79.715263,470.903839 
	C75.043571,473.672852 69.350609,475.133087 66.491035,481.222595 
	C72.802666,478.384399 78.526634,475.776611 83.017853,469.788513 
	C81.495522,470.266418 80.873009,470.461853 79.715263,470.903839 
M421.948364,316.415771 
	C420.565796,317.005829 419.033997,317.508911 420.179016,319.747162 
	C421.233398,319.747162 422.353485,319.816895 423.461792,319.732513 
	C425.716248,319.560913 428.269562,319.924866 429.451050,317.280579 
	C429.847504,316.393372 429.882385,315.119659 428.886475,314.592072 
	C426.387939,313.268402 424.559784,315.111847 421.948364,316.415771 
M274.689484,259.293304 
	C276.660736,262.141113 278.525726,265.122223 282.893127,266.028320 
	C281.472778,262.740601 280.318512,260.049408 279.146637,257.365906 
	C278.685181,256.309143 278.219452,255.043854 276.751923,255.433548 
	C275.160278,255.856201 273.431427,256.421387 274.689484,259.293304 
M449.569580,306.030396 
	C446.928406,302.028503 443.847656,306.565308 440.541138,304.830658 
	C441.472870,308.440216 443.052795,310.616211 445.854431,310.921204 
	C448.456146,311.204407 449.436798,309.070465 449.569580,306.030396 
M416.498108,427.328613 
	C417.190002,423.246948 415.870026,419.934692 412.734436,416.940063 
	C411.892975,420.474701 412.662506,423.497620 413.349274,426.526001 
	C413.734100,428.223053 414.332092,429.482300 416.498108,427.328613 
M62.940895,441.253113 
	C62.437523,442.932465 61.014561,444.284882 61.112129,446.746490 
	C64.816635,441.841888 69.879761,438.370544 70.426361,431.395447 
	C66.967110,434.128723 64.935631,437.242096 62.940895,441.253113 
M36.777531,467.760712 
	C38.691849,469.181458 40.170013,471.279358 42.788052,471.952789 
	C42.592266,466.171265 40.156952,464.446014 32.501766,464.582703 
	C33.888435,465.611206 35.068169,466.486206 36.777531,467.760712 
M403.165222,420.242523 
	C404.358612,420.971283 405.244965,422.570587 407.032501,421.641632 
	C407.427826,416.413788 404.624878,414.195099 399.374878,415.589172 
	C399.771637,417.543915 401.322845,418.599701 403.165222,420.242523 
M268.441956,390.484039 
	C268.339050,392.369263 268.269592,394.338806 270.880951,394.411316 
	C272.383881,394.453033 273.285553,393.337708 273.508179,391.924164 
	C273.764435,390.297302 274.002106,388.443817 272.015778,387.697601 
	C270.136963,386.991760 268.797302,387.682587 268.441956,390.484039 
M428.929047,426.035400 
	C428.657043,427.166504 427.139984,428.139954 428.630829,429.744873 
	C432.293488,427.301727 434.988617,424.384613 435.776245,418.813354 
	C432.457611,420.960693 430.720428,423.093201 428.929047,426.035400 
M226.616425,383.798920 
	C225.275085,381.987549 223.665802,380.610321 221.304199,381.746063 
	C220.279953,382.238678 219.638931,383.458282 219.896484,384.661163 
	C220.284470,386.473328 221.892151,387.321167 223.431229,387.692108 
	C226.077515,388.329895 225.968491,385.854431 226.616425,383.798920 
M277.724060,183.667984 
	C279.690277,183.935043 281.656494,184.202103 284.305878,184.561951 
	C278.265381,179.489822 276.976959,179.277969 272.963074,182.273636 
	C274.055908,183.485016 275.520721,183.567429 277.724060,183.667984 
M354.405762,407.028168 
	C358.073212,404.492004 356.495758,401.647736 355.018311,398.077332 
	C352.840149,401.260498 352.636566,403.936768 354.405762,407.028168 
M421.248718,424.947632 
	C421.324554,425.676880 420.879364,426.602142 422.346710,427.072693 
	C423.161224,423.927734 425.596558,421.738861 428.225037,418.199829 
	C424.081451,419.539764 421.937439,421.109009 421.248718,424.947632 
M38.715767,267.914001 
	C42.160522,271.190796 46.112709,267.752045 49.720531,268.969086 
	C46.136848,268.991394 42.852058,266.459381 38.715767,267.914001 
M63.036076,271.818665 
	C63.672955,269.201660 62.132351,268.519714 57.157887,269.604858 
	C59.237087,270.465302 60.864059,271.138580 63.036076,271.818665 
M365.531677,413.718018 
	C365.350586,412.701813 365.651733,411.401978 364.029236,411.136780 
	C362.888794,412.774200 361.744598,414.338898 362.849548,416.433899 
	C364.737946,416.866882 365.035461,415.483734 365.531677,413.718018 
M61.089973,459.463135 
	C61.640377,458.221039 62.190777,456.978943 62.963665,455.234772 
	C58.803146,457.421997 58.803146,457.421997 60.053207,461.941071 
	C60.397095,461.118927 60.639412,460.539642 61.089973,459.463135 
M309.592102,221.654160 
	C309.552826,221.497421 309.544342,221.322449 309.465454,221.189148 
	C309.389038,221.059952 309.163879,220.863449 309.134125,220.884079 
	C307.082184,222.306870 306.507050,224.582275 305.725372,226.770828 
	C307.543579,225.647827 308.987793,224.256226 309.592102,221.654160 
z"/>
</svg>